<svg width="29" height="43" viewBox="0 0 29 43" fill="none" xmlns="http://www.w3.org/2000/svg">
<path d="M16.054 9.99531C15.6467 9.9058 15.4341 9.75388 15.054 9.99531C14.788 10.1689 14.3367 10.0617 14.054 9.99531C14.0006 9.983 14.0802 10.9691 14.054 10.9953C13.6289 11.4412 13.389 11.4787 13.054 11.9953C11.9008 13.772 10.0101 17.4505 12.054 18.9953C13.6099 20.1713 16.0695 19.5693 17.054 17.9953C17.5956 17.1287 18.06 15.9962 18.054 14.9953C18.0481 13.966 17.8047 12.8422 17.054 11.9953C17.1443 11.5893 17.2963 11.3734 17.054 10.9953C16.8118 10.6171 16.4614 10.0848 16.054 9.99531ZM17.054 11.9953C17.1111 12.1097 17.016 12.8797 17.054 12.9953C17.6954 14.9845 17.0315 18.731 14.054 17.9953C13.2726 17.8023 13.769 17.6226 14.054 16.9953C14.4864 16.0443 14.4365 14.8362 15.054 13.9953C15.2369 13.7465 15.845 13.2228 16.054 12.9953C15.7999 13.2212 16.1158 12.9287 16.054 12.9953C16.3367 12.8156 16.9293 12.2796 17.054 11.9953Z" fill="#1AE5E8"/>
<path d="M19.0539 0.99511C10.3926 0.48729 -0.874528 8.66752 0.0538503 17.9951C0.470061 22.1661 2.84205 26.48 5.05385 29.9951C5.8311 31.2315 6.24542 31.7843 7.05385 32.9951C8.18254 34.6837 8.87119 36.3385 10.0539 37.9951C11.1765 39.5675 13.0256 41.6991 15.0539 41.9951C15.4113 42.0473 15.694 42.0279 16.0539 41.9951C16.4413 41.9599 16.2463 41.5537 18.0539 40.9951C19.6551 40.1811 19.8707 38.5883 19.0539 36.9951C18.8751 36.6475 18.3261 36.246 18.0539 35.9951C18.8035 34.8101 19.6101 34.3167 20.0539 32.9951C20.8107 30.7386 21.1495 28.2018 22.0539 25.9951C23.5856 22.2584 26.8892 18.8925 28.0539 14.9951C28.4461 13.6827 28.1066 12.3553 28.0539 10.9951C27.9039 7.16282 26.795 3.6882 23.0539 1.99511C21.8508 1.45088 20.3685 1.07211 19.0539 0.99511ZM19.0539 3.99511C21.3592 4.0998 23.8352 5.79145 25.0539 7.99511C25.6104 9.00001 25.8931 9.88015 26.0539 10.9951C26.1894 11.9358 26.1798 13.0432 26.0539 13.9951C25.5645 17.674 23.444 20.6268 22.0539 23.9951C21.5813 25.1393 21.3597 26.7979 21.0539 27.9951C20.3306 30.823 19.2857 33.3236 18.0539 35.9951C18.0167 36.0768 18.0946 35.9144 18.0539 35.9951C17.4853 35.5362 16.7819 36.0063 16.0539 35.9951C14.4526 34.2621 14.3816 31.9277 13.0539 29.9951C12.4565 29.1249 11.674 27.849 11.0539 26.9951C9.49816 24.8558 8.17774 22.3912 7.05385 19.9951C6.273 18.3284 4.81876 16.8689 5.05385 14.9951C5.71115 9.75324 12.1649 4.94271 17.0539 3.99511C17.8383 3.84303 18.2862 3.96025 19.0539 3.99511ZM16.0539 35.9951C15.9243 35.9777 16.205 35.9796 16.0539 35.9951C15.7264 36.0399 15.3669 35.8451 15.0539 35.9951C15.0515 35.9651 15.0562 36.0381 15.0539 35.9951C15.0407 35.8101 15.8691 36.0142 16.0539 35.9951Z" fill="#1AE5E8"/>
</svg>
