<svg width="72" height="32" viewBox="0 0 72 32" fill="none" xmlns="http://www.w3.org/2000/svg">
<path d="M2 12.5002C11.3357 12.5002 20.6643 12.5002 30 12.5002C38.4367 12.5002 47.5633 12.5002 56 12.5002C58.6968 12.5002 61.3032 12.5002 64 12.5002C64.6925 12.5002 65.4592 12.8697 66 12.5002C66.2854 12.3052 65.3384 12.6179 65 12.5002C63.9649 12.14 63.0306 11.9447 62 11.5002C58.8263 10.1312 55.2832 8.67152 52 7.50017C48.4782 6.24368 45.4418 4.91269 42 3.50017C41.3066 3.21559 39.5194 3.01324 40 2.50017C40.1952 2.29174 41.954 2.49231 42 2.50017C45.5067 3.09917 48.6465 4.45693 52 5.50017C57.7676 7.29441 64.8304 8.52988 70 11.5002C73.4284 13.47 50.9238 28.5976 48 30.5002" stroke="#1AE5E8" stroke-width="3" stroke-linecap="round"/>
</svg>
