<svg width="14" height="20" viewBox="0 0 14 20" fill="none" xmlns="http://www.w3.org/2000/svg">
<path d="M9.02423 0.104571C5.00293 -0.13076 -0.4068 3.78203 0.024233 8.10457C0.217474 10.0375 0.997328 11.4756 2.02423 13.1046C2.3851 13.6775 2.64889 14.5435 3.02423 15.1046C3.54827 15.8871 4.47514 16.3369 5.02423 17.1046C5.54548 17.8332 6.08253 18.9674 7.02423 19.1046C6.85717 19.1198 7.19019 19.1287 7.02423 19.1046C7.20411 19.0883 7.185 19.3634 8.02423 19.1046C8.76768 18.7273 9.40347 17.8429 9.02423 17.1046C8.94126 16.9435 9.15065 16.2209 9.02423 16.1046C9.37229 15.5554 8.81818 15.717 9.02423 15.1046C9.37563 14.0589 9.60434 12.1272 10.0242 11.1046C10.7354 9.37294 12.4835 7.91066 13.0242 6.10457C13.2063 5.49638 13.0487 5.73489 13.0242 5.10457C12.9546 3.32863 11.7612 0.889175 10.0242 0.104571C9.46567 -0.147633 9.63458 0.140253 9.02423 0.104571ZM9.02423 2.10457C10.0946 2.15309 11.4584 2.08336 12.0242 3.10457C12.2826 3.57026 11.9496 3.58788 12.0242 4.10457C12.0872 4.54049 12.0827 5.66345 12.0242 6.10457C11.797 7.80942 10.6697 9.54366 10.0242 11.1046C9.80482 11.6348 10.1662 11.5498 10.0242 12.1046C9.68843 13.415 9.59616 14.8666 9.02423 16.1046C9.00697 16.1424 9.04317 16.0672 9.02423 16.1046C8.76027 15.8919 8.36227 16.1098 8.02423 16.1046C7.28078 15.3015 6.64071 14.0001 6.02423 13.1046C5.7469 12.7013 5.31215 12.5003 5.02423 12.1046C4.30195 11.1132 3.54604 10.215 3.02423 9.10457C2.6617 8.33219 1.91508 6.97293 2.02423 6.10457C2.32941 3.67541 5.75435 2.5437 8.02423 2.10457C8.38844 2.03409 8.66782 2.08842 9.02423 2.10457ZM7.02423 16.1046C6.96409 16.0965 7.0944 16.0974 7.02423 16.1046C6.8722 16.1253 7.16958 16.035 7.02423 16.1046C7.02535 16.1245 7.02312 16.0907 7.02423 16.1046C7.01811 16.0188 6.93847 16.1134 7.02423 16.1046Z" fill="#1AE5E8"/>
<path d="M7.00023 3.99974C6.82564 3.95499 7.16311 3.87903 7.00023 3.99974C6.88621 4.08654 6.12137 4.03296 6.00023 3.99974C5.97732 3.99359 6.01143 3.98666 6.00023 3.99974C5.818 4.2227 6.14377 4.74144 6.00023 4.99974C5.50599 5.88809 4.12423 8.22732 5.00023 8.99974C5.66702 9.58775 7.57826 8.78673 8.00023 7.99974C8.23233 7.56644 8.00277 7.50019 8.00023 6.99974C7.99768 6.48509 8.32192 5.42316 8.00023 4.99974C8.03891 4.79674 7.10407 4.18878 7.00023 3.99974C7.17482 4.0445 6.89639 3.81065 7.00023 3.99974ZM7.00023 4.99974C7.02466 5.05693 7.98394 4.94196 8.00023 4.99974C8.27509 5.99436 7.2763 8.36757 6.00023 7.99974C5.6653 7.90324 5.87807 7.3134 6.00023 6.99974C6.18551 6.52423 6.73555 6.4202 7.00023 5.99974C6.91064 6.11347 7.07861 5.87536 7.00023 5.99974C7.0267 5.96641 6.8913 5.1127 7.00023 4.99974C7.12137 4.90987 6.94678 5.14189 7.00023 4.99974Z" fill="#1AE5E8"/>
</svg>
