<svg width="19" height="19" viewBox="0 0 19 19" fill="none" xmlns="http://www.w3.org/2000/svg">
<path d="M5.11366 0.238898C6.01092 1.1637 6.06222 2.98288 6.11366 4.2389C6.10832 4.89395 5.57247 5.77857 5.11366 6.2389C5.05082 6.30021 5.17672 6.17782 5.11366 6.2389C4.87073 6.4763 4.22454 6.90794 4.11366 7.2389C4.11211 7.70017 4.82353 7.93129 5.11366 8.2389C5.19126 8.32205 5.03615 9.15566 5.11366 9.2389C5.15061 9.27851 6.07559 9.19809 6.11366 9.2389C5.89258 8.97946 6.34519 9.48869 6.11366 9.2389C6.47426 9.66152 6.73474 10.8334 7.11366 11.2389C7.08158 11.2045 7.1448 11.2723 7.11366 11.2389C7.74232 11.9097 9.32722 11.7695 10.1137 12.2389C10.1781 12.2808 10.0494 13.1966 10.1137 13.2389C10.5594 13.5258 10.5859 13.3514 11.1137 13.2389C11.3926 13.1593 11.9236 12.4666 12.1137 12.2389C12.0749 12.2811 12.1513 12.198 12.1137 12.2389C11.955 12.4955 12.3162 12.0172 12.1137 12.2389C12.3594 11.8525 12.667 11.3441 13.1137 11.2389C13.7332 11.1728 14.5639 10.9529 15.1137 11.2389C15.0495 11.2058 15.1765 11.2713 15.1137 11.2389C17.6569 12.5564 17.8386 13.3976 18.1137 14.2389C18.1804 14.6006 18.1818 14.8792 18.1137 15.2389C18.1037 15.2923 18.1239 15.1839 18.1137 15.2389C17.9089 16.2852 17.022 16.6195 16.1137 17.2389C16.0611 17.2765 16.1678 18.2002 16.1137 18.2389C15.8309 18.3998 15.4286 18.1789 15.1137 18.2389C15.0044 18.2597 15.2227 18.2169 15.1137 18.2389C12.9581 18.6639 10.9771 18.3855 9.11366 17.2389C9.0603 17.2064 9.16864 16.2724 9.11366 16.2389C8.09878 15.5994 7.01391 15.0331 6.11366 14.2389C6 14.1387 6.22939 14.3366 6.11366 14.2389C5.71019 13.8953 5.18894 13.4691 5.11366 13.2389C5.01142 13.18 5.2296 13.2912 5.11366 13.2389C5.04976 13.1899 5.17433 13.292 5.11366 13.2389C5.06226 13.1939 5.1661 13.2848 5.11366 13.2389C5.07797 13.2071 4.15043 13.2717 4.11366 13.2389C4.07684 13.2062 4.15159 13.2726 4.11366 13.2389C3.89698 13.044 4.29703 12.4672 4.11366 12.2389C4.01103 12.1114 3.22351 12.36 3.11366 12.2389C2.87461 11.9691 3.32833 11.5288 3.11366 11.2389C2.99951 11.0866 2.2343 11.3858 2.11366 11.2389C1.83895 10.8911 2.33183 9.62487 2.11366 9.2389C2.04779 9.12303 2.17961 9.35472 2.11366 9.2389C2.08308 9.18492 1.14517 9.29451 1.11366 9.2389C1.02496 9.08733 1.20962 9.38576 1.11366 9.2389C0.63912 8.47851 0.327448 7.10858 0.113661 6.2389C0.102113 6.19285 0.12556 6.28634 0.113661 6.2389C-0.259672 4.73185 0.342012 2.57854 1.11366 1.2389C1.53686 0.547948 2.32288 0.428656 3.11366 0.238898C3.76572 0.10251 4.5805 -0.222586 5.11366 0.238898Z" fill="#1AE5E8"/>
</svg>
