<svg width="54" height="51" viewBox="0 0 54 51" fill="none" xmlns="http://www.w3.org/2000/svg">
<path d="M46.108 14.652L44.788 13.692L46.684 11.244L43.72 10.344L44.224 8.796L47.14 9.828L47.068 6.72H48.7L48.628 9.828L51.532 8.796L52.036 10.344L49.084 11.244L50.956 13.692L49.636 14.652L47.884 12.108L46.108 14.652Z" fill="#F7EBEC"/>
<path d="M0 29.5C0 41.3741 9.62588 51 21.5 51C33.3741 51 43 41.3741 43 29.5C43 17.6259 33.3741 8 21.5 8C9.62588 8 0 17.6259 0 29.5Z" fill="#1AE5E8"/>
<path d="M21 19.988C23.9157 19.988 24.3133 19.988 25.506 19.988C26.5663 19.988 27.0964 20.253 27.494 20.3855C28.0241 20.6506 28.4217 20.7831 28.8193 21.1807C29.2169 21.5783 29.4819 21.9759 29.6145 22.506C29.747 22.9036 29.8795 23.4337 30.012 24.494C30.012 25.6867 30.012 25.9518 30.012 29C30.012 32.0482 30.012 32.3133 30.012 33.506C30.012 34.5663 29.747 35.0964 29.6145 35.494C29.3494 36.0241 29.2169 36.4217 28.8193 36.8193C28.4217 37.2169 28.0241 37.4819 27.494 37.6145C27.0964 37.747 26.5663 37.8795 25.506 38.012C24.3133 38.012 24.0482 38.012 21 38.012C17.9518 38.012 17.6867 38.012 16.494 38.012C15.4337 38.012 14.9036 37.747 14.506 37.6145C13.9759 37.3494 13.5783 37.2169 13.1807 36.8193C12.7831 36.4217 12.5181 36.0241 12.3855 35.494C12.253 35.0964 12.1205 34.5663 11.988 33.506C11.988 32.3133 11.988 32.0482 11.988 29C11.988 25.9518 11.988 25.6867 11.988 24.494C11.988 23.4337 12.253 22.9036 12.3855 22.506C12.6506 21.9759 12.7831 21.5783 13.1807 21.1807C13.5783 20.7831 13.9759 20.5181 14.506 20.3855C14.9036 20.253 15.4337 20.1205 16.494 19.988C17.6867 19.988 18.0843 19.988 21 19.988ZM21 18C17.9518 18 17.6867 18 16.494 18C15.3012 18 14.506 18.2651 13.8434 18.5301C13.1807 18.7952 12.5181 19.1928 11.8554 19.8554C11.1928 20.5181 10.9277 21.0482 10.5301 21.8434C10.2651 22.506 10.1325 23.3012 10 24.494C10 25.6867 10 26.0843 10 29C10 32.0482 10 32.3133 10 33.506C10 34.6988 10.2651 35.494 10.5301 36.1566C10.7952 36.8193 11.1928 37.4819 11.8554 38.1446C12.5181 38.8072 13.0482 39.0723 13.8434 39.4699C14.506 39.7349 15.3012 39.8675 16.494 40C17.6867 40 18.0843 40 21 40C23.9157 40 24.3133 40 25.506 40C26.6988 40 27.494 39.7349 28.1566 39.4699C28.8193 39.2048 29.4819 38.8072 30.1446 38.1446C30.8072 37.4819 31.0723 36.9518 31.4699 36.1566C31.7349 35.494 31.8675 34.6988 32 33.506C32 32.3133 32 31.9157 32 29C32 26.0843 32 25.6867 32 24.494C32 23.3012 31.7349 22.506 31.4699 21.8434C31.2048 21.1807 30.8072 20.5181 30.1446 19.8554C29.4819 19.1928 28.9518 18.9277 28.1566 18.5301C27.494 18.2651 26.6988 18.1325 25.506 18C24.3133 18 24.0482 18 21 18Z" fill="#F7EBEC"/>
<path d="M21 23.3012C17.8193 23.3012 15.3012 25.8193 15.3012 29C15.3012 32.1807 17.8193 34.6988 21 34.6988C24.1807 34.6988 26.6988 32.1807 26.6988 29C26.6988 25.8193 24.1807 23.3012 21 23.3012ZM21 32.7108C19.012 32.7108 17.2892 31.1205 17.2892 29C17.2892 27.012 18.8795 25.2892 21 25.2892C22.988 25.2892 24.7108 26.8795 24.7108 29C24.7108 30.988 22.988 32.7108 21 32.7108Z" fill="#F7EBEC"/>
<path d="M26.8313 24.494C27.5633 24.494 28.1566 23.9006 28.1566 23.1687C28.1566 22.4367 27.5633 21.8434 26.8313 21.8434C26.0994 21.8434 25.506 22.4367 25.506 23.1687C25.506 23.9006 26.0994 24.494 26.8313 24.494Z" fill="#F7EBEC"/>
</svg>
