<svg width="42" height="37" viewBox="0 0 42 37" fill="none" xmlns="http://www.w3.org/2000/svg">
<path d="M31.7222 0.103975C27.1729 0.514726 23.912 3.60964 22.7222 8.10398C22.5511 8.75023 21.7938 9.4092 21.7222 10.104C20.7212 9.19694 19.9202 8.73567 18.7222 8.10398C14.106 5.6696 7.37209 3.90373 2.72218 7.10397C-2.11906 10.4358 0.540393 17.1196 2.72218 21.104C3.22083 22.0145 3.14048 22.2444 3.72218 23.104C6.86063 27.7421 11.5808 31.8255 16.7222 34.104C17.7799 34.5727 18.5974 35.837 19.7222 36.104C20.1031 36.1945 20.3743 36.2849 20.7222 36.104C23.0971 34.8692 21.6644 35.9694 22.7222 36.104C24.3373 36.3093 25.4513 34.7103 25.7222 33.104C26.8979 32.5233 27.6873 31.9547 28.7222 31.104C31.0579 29.1842 32.8566 26.4789 34.7222 24.104C36.7511 21.5212 38.4302 19.1424 39.7222 16.104C41.773 11.2811 43.0714 4.08158 37.7222 1.10398C36.8812 0.635787 35.6647 0.281591 34.7222 0.103975C33.7583 -0.0775905 32.6982 0.0159569 31.7222 0.103975ZM34.7222 2.10398C35.4645 2.19786 36.046 2.77786 36.7222 3.10398C40.9592 5.1478 40.9032 10.3005 39.7222 14.104C38.1833 19.0596 35.0314 24.1858 31.7222 28.104C31.0071 28.9508 30.4895 29.3053 29.7222 30.104C29.4843 30.3517 29.0637 31.1136 28.7222 31.104C26.8153 31.0508 27.7222 31.104 27.7222 31.104C27.7222 31.104 26.3648 32.5238 25.7222 33.104C25.8489 31.8071 24.8227 30.6544 23.7222 30.104C22.1388 29.78 20.1706 29.7553 18.7222 29.104C13.9917 26.9765 10.7049 22.2491 7.72218 18.104C6.47551 16.3715 5.30354 15.1759 4.72218 13.104C4.59626 12.6553 4.44523 11.53 4.72218 11.104C5.24539 10.2991 6.86141 10.279 7.72218 10.104C11.4481 9.34668 16.6612 10.9775 19.7222 13.104C20.689 13.7756 21.1532 14.116 21.7222 15.104C22.241 16.0049 23.4921 17.4597 24.7222 17.104C25.9678 16.7437 25.9404 15.2343 25.7222 14.104C25.5941 13.4408 24.7874 12.7751 24.7222 12.104C24.6649 11.5141 24.69 10.7005 24.7222 10.104C24.9879 5.1656 29.9168 1.49563 34.7222 2.10398ZM23.7222 30.104C24.2725 30.2167 25.182 31.0817 25.7222 31.104C26.4874 31.1355 25.1957 30.902 22.7222 30.104C23.0677 30.1479 23.4267 29.9563 23.7222 30.104Z" fill="#1AE5E8"/>
</svg>
