<svg width="24" height="25" viewBox="0 0 24 25" fill="none" xmlns="http://www.w3.org/2000/svg">
<path d="M10.2027 12.4311C11.2621 7.9079 12.4879 3.37941 13.0359 0.972864C12.3622 4.45871 14.2227 7.41618 15.6939 10.5475C15.9101 11.0077 16.1224 11.4565 16.333 11.8961C18.3423 11.6122 20.3508 11.2519 22.3724 10.9034C24.1629 10.5948 19.5293 13.6653 17.8852 14.9946C18.91 16.9278 20.0186 18.7675 21.4466 20.7363C22.0526 21.5718 23.1665 24.0198 21.3374 22.9764C19.0542 21.674 16.7399 20.3285 14.4143 18.9801C14.4057 18.991 14.3971 19.0018 14.3884 19.0126C14.0921 19.3844 8.39365 25.1178 8.36019 23.6325C8.32071 21.8804 8.75952 19.1243 9.39089 16.0842C7.28568 14.8821 5.18269 13.7012 3.09637 12.5714C2.43489 12.2132 0.49051 11.085 0.49051 11.085C2.52013 11.5945 4.60031 12.1266 6.68006 12.3132C7.8611 12.4191 9.03441 12.4528 10.2027 12.4311Z" fill="#1AE5E8" stroke="#1AE5E8" stroke-linecap="round"/>
</svg>
