<svg width="40" height="40" viewBox="0 0 40 40" fill="none" xmlns="http://www.w3.org/2000/svg">
<path d="M10.2666 1.91896C12.2106 3.87132 13.1551 7.26737 13.2666 9.91896C13.255 11.3018 12.2606 12.9472 11.2666 13.919C11.1304 14.0484 11.4032 13.79 11.2666 13.919C10.7402 14.4202 9.50679 15.2203 9.26655 15.919C9.2632 16.8928 10.6379 18.2696 11.2666 18.919C11.4347 19.0945 12.0986 18.7432 12.2666 18.919C12.1841 18.8328 12.3466 19.0026 12.2666 18.919C12.7682 19.4463 12.7875 20.3713 13.2666 20.919C14.0478 21.8112 15.4455 23.0628 16.2666 23.919C16.197 23.8463 16.334 23.9895 16.2666 23.919C17.6287 25.3352 19.5626 25.9279 21.2666 26.919C21.4062 27.0074 21.1274 27.8298 21.2666 27.919C22.2324 28.5247 23.1231 28.1564 24.2666 27.919C24.871 27.7508 24.8548 27.3996 25.2666 26.919C25.1826 27.008 25.3481 26.8326 25.2666 26.919C25.7055 26.451 26.9229 26.4608 27.2666 25.919C27.799 25.1033 28.2987 24.1411 29.2666 23.919C30.6089 23.7794 32.0754 24.3152 33.2666 24.919C33.1276 24.8491 33.4028 24.9875 33.2666 24.919C38.777 27.7003 38.6706 28.143 39.2666 29.919C39.4111 30.6826 39.4143 31.1595 39.2666 31.919C39.245 32.0317 39.2887 31.8028 39.2666 31.919C38.823 34.1278 38.2345 36.6112 36.2666 37.919C36.1528 37.9983 35.3838 37.8373 35.2666 37.919C34.6538 38.2586 33.9489 38.7923 33.2666 38.919C33.0298 38.963 33.5029 38.8724 33.2666 38.919C28.5962 39.8162 23.304 38.3395 19.2666 35.919C19.1509 35.8504 19.3857 35.9896 19.2666 35.919C17.0676 34.569 15.2171 32.5957 13.2666 30.919C13.0203 30.7073 12.5173 31.1253 12.2666 30.919C11.3924 30.1935 11.4297 29.405 11.2666 28.919C11.045 28.7947 11.5177 29.0295 11.2666 28.919C11.1281 28.8155 10.398 29.0311 10.2666 28.919C10.1552 28.824 10.3802 29.0158 10.2666 28.919C10.1892 28.8518 10.3462 27.9882 10.2666 27.919C10.1868 27.8499 9.34874 27.9901 9.26655 27.919C8.79709 27.5075 8.66385 27.401 8.26655 26.919C8.04417 26.6498 7.50455 26.1746 7.26655 25.919C6.7486 25.3493 6.73168 24.531 6.26655 23.919C6.01923 23.5975 5.52793 23.2291 5.26655 22.919C4.67135 22.1847 4.73926 21.7338 4.26655 20.919C4.12384 20.6743 3.40945 20.1635 3.26655 19.919C3.20028 19.805 3.33483 20.0364 3.26655 19.919C3.07436 19.599 2.47447 19.229 2.26655 18.919C1.23838 17.3137 0.729757 15.755 0.266552 13.919C0.241531 13.8218 0.292332 14.0191 0.266552 13.919C-0.542336 10.7374 0.594646 6.7471 2.26655 3.91896C3.18348 2.46029 4.55319 1.31956 6.26655 0.918964C7.67935 0.631033 9.11137 0.94472 10.2666 1.91896Z" fill="#1AE5E8"/>
</svg>
