<svg width="43" height="43" viewBox="0 0 43 43" fill="none" xmlns="http://www.w3.org/2000/svg">
<path d="M0 21.5C0 33.3741 9.62588 43 21.5 43C33.3741 43 43 33.3741 43 21.5C43 9.62588 33.3741 0 21.5 0C9.62588 0 0 9.62588 0 21.5Z" fill="#1AE5E8"/>
<path d="M10.5124 20.749C16.418 18.2088 20.3559 16.5341 22.3263 15.725C27.9521 13.4148 29.1211 13.0135 29.883 13.0001C30.0506 12.9974 30.4253 13.0384 30.668 13.2328C30.873 13.397 30.9294 13.6188 30.9563 13.7744C30.9833 13.9301 31.0169 14.2847 30.9902 14.5617C30.6854 17.7242 29.3662 25.3986 28.6951 28.9406C28.4111 30.4394 27.852 30.9419 27.3107 30.9911C26.1343 31.098 25.2409 30.2235 24.1015 29.4861C22.3186 28.3323 21.3113 27.614 19.5807 26.488C17.5806 25.1868 18.8772 24.4716 20.017 23.3028C20.3153 22.9969 25.4986 18.3423 25.5989 17.9201C25.6115 17.8673 25.6231 17.6705 25.5046 17.5665C25.3862 17.4626 25.2114 17.4981 25.0852 17.5264C24.9064 17.5665 22.0581 19.4251 16.5403 23.1023C15.7319 23.6504 14.9996 23.9174 14.3435 23.9035C13.6202 23.888 12.2288 23.4997 11.1945 23.1678C9.92583 22.7606 8.91753 22.5454 9.00533 21.8539C9.05106 21.4938 9.55341 21.1255 10.5124 20.749Z" fill="#F7EBEC"/>
</svg>
