<svg width="43" height="43" viewBox="0 0 43 43" fill="none" xmlns="http://www.w3.org/2000/svg">
<path d="M43 21.5C43 9.62588 33.3741 0 21.5 0C9.62588 0 0 9.62588 0 21.5C0 33.3741 9.62588 43 21.5 43C33.3741 43 43 33.3741 43 21.5Z" fill="#F7EBEC"/>
<path d="M11 21.56C11 16.5807 11 14.0947 12.54 12.54C14.102 11 16.588 11 21.56 11H22.44C27.4193 11 29.9053 11 31.46 12.54C33 14.102 33 16.588 33 21.56V22.44C33 27.4193 33 29.9053 31.46 31.46C29.898 33 27.412 33 22.44 33H21.56C16.5807 33 14.0947 33 12.54 31.46C11 29.898 11 27.412 11 22.44V21.56Z" fill="#1AE5E8"/>
<path d="M23.1668 27C18.042 27 15.1199 23.6277 15 18.0072H17.5774C17.6598 22.1289 19.548 23.8727 21.0465 24.233V18.0072H23.4665V21.5596C24.9426 21.4083 26.501 19.787 27.0255 18H29.4381C29.2413 18.9251 28.8484 19.8012 28.2837 20.5736C27.7191 21.346 26.9949 21.9981 26.1563 22.4892C27.0921 22.9371 27.9185 23.5707 28.581 24.3483C29.2436 25.1258 29.7272 26.0296 30 27H27.3402C26.7707 25.2922 25.3472 23.9664 23.4665 23.7862V27H23.1743H23.1668Z" fill="#F7EBEC"/>
</svg>
